<?xml version="1.0" standalone="no"?>
<!DOCTYPE svg PUBLIC "-//W3C//DTD SVG 20010904//EN"
 "http://www.w3.org/TR/2001/REC-SVG-20010904/DTD/svg10.dtd">
<svg version="1.0" xmlns="http://www.w3.org/2000/svg"
 width="367.000000pt" height="740.000000pt" viewBox="0 0 367.000000 740.000000"
 preserveAspectRatio="xMidYMid meet">

<g transform="translate(0.000000,740.000000) scale(0.100000,-0.100000)"
fill="#000000" stroke="none">
<path d="M1251 7153 c-38 -19 -71 -66 -71 -103 0 -39 37 -90 77 -106 l36 -15
-7 -77 c-9 -110 -517 -3192 -582 -3532 -50 -263 -63 -375 -48 -413 4 -11 31 3
115 59 198 134 430 231 679 286 94 20 132 22 355 22 222 0 262 -2 354 -22 309
-68 585 -196 796 -371 l50 -41 7 37 c15 81 6 167 -47 472 -30 174 -168 1038
-306 1921 -139 883 -254 1617 -256 1632 -4 22 0 29 32 44 42 19 75 66 75 104
0 14 -9 40 -20 58 -38 63 -32 62 -647 62 -500 0 -562 -2 -592 -17z"/>
<path d="M1539 3185 c-418 -68 -791 -272 -1037 -568 -97 -116 -147 -193 -208
-321 -94 -197 -134 -375 -134 -601 0 -226 40 -404 134 -601 228 -475 689 -803
1251 -890 106 -16 381 -18 492 -4 635 84 1161 499 1348 1064 46 141 65 263 65
431 0 226 -40 404 -134 601 -214 446 -632 761 -1161 874 -130 28 -483 37 -616
15z m415 -901 c93 -24 174 -72 251 -149 113 -112 155 -215 155 -376 0 -152
-57 -281 -171 -383 -116 -104 -225 -146 -383 -146 -169 0 -282 46 -402 165
-107 106 -154 218 -154 370 0 152 47 262 157 372 75 74 156 122 249 148 69 19
223 18 298 -1z"/>
</g>
</svg>
