<svg id="svg" version="1.1" xmlns="http://www.w3.org/2000/svg" xmlns:xlink="http://www.w3.org/1999/xlink" width="400" height="332.7217125382263" viewBox="0, 0, 400,332.7217125382263"><g id="svgg"><path id="path0" d="M0.000 166.389 L 0.000 332.779 200.000 332.779 L 400.000 332.779 400.000 166.389 L 400.000 0.000 200.000 0.000 L 0.000 0.000 0.000 166.389 M235.441 4.992 C 235.554 5.175,235.939 5.324,236.297 5.324 C 238.610 5.324,241.930 9.464,241.930 12.347 C 241.930 14.184,239.734 17.970,238.669 17.970 C 238.506 17.970,238.102 18.270,237.770 18.636 C 237.439 19.002,236.847 19.301,236.454 19.301 C 235.158 19.301,234.221 21.812,235.275 22.463 C 235.458 22.576,235.607 23.333,235.607 24.146 C 235.607 24.959,235.757 25.624,235.940 25.624 C 236.123 25.624,236.273 26.448,236.273 27.454 C 236.273 28.461,236.423 29.285,236.606 29.285 C 236.789 29.285,236.938 30.099,236.938 31.095 C 236.938 32.091,237.088 32.998,237.271 33.111 C 237.454 33.225,237.604 34.198,237.604 35.275 C 237.604 36.351,237.739 37.316,237.905 37.418 C 238.070 37.520,238.313 39.176,238.444 41.098 C 238.575 43.020,238.814 44.592,238.975 44.592 C 239.136 44.592,239.268 45.482,239.268 46.569 C 239.268 47.657,239.418 48.639,239.601 48.752 C 239.784 48.865,239.933 49.773,239.933 50.768 C 239.933 51.764,240.083 52.579,240.266 52.579 C 240.451 52.579,240.599 53.460,240.599 54.556 C 240.599 55.643,240.749 56.626,240.932 56.739 C 241.115 56.852,241.265 57.750,241.265 58.735 C 241.265 59.720,241.395 60.607,241.554 60.705 C 241.713 60.804,241.949 62.233,242.078 63.882 C 242.207 65.531,242.451 66.965,242.620 67.070 C 242.790 67.175,242.928 67.776,242.928 68.406 C 242.928 69.035,243.078 69.551,243.261 69.551 C 243.444 69.551,243.594 70.216,243.594 71.029 C 243.594 71.841,243.744 72.599,243.927 72.712 C 244.110 72.825,244.260 73.433,244.260 74.063 C 244.260 74.693,244.409 75.208,244.592 75.208 C 244.775 75.208,244.925 75.873,244.925 76.686 C 244.925 77.499,245.063 78.249,245.232 78.353 C 245.400 78.457,245.643 79.517,245.770 80.707 C 245.898 81.897,246.134 82.953,246.296 83.053 C 246.457 83.152,246.589 83.899,246.589 84.712 C 246.589 85.525,246.739 86.190,246.922 86.190 C 247.105 86.190,247.255 86.705,247.255 87.335 C 247.255 87.965,247.404 88.572,247.587 88.686 C 247.770 88.799,247.920 89.473,247.920 90.183 C 247.920 90.894,248.070 91.567,248.253 91.681 C 248.436 91.794,248.586 92.393,248.586 93.012 C 248.586 93.631,248.718 94.219,248.881 94.319 C 249.043 94.420,249.273 95.065,249.392 95.753 C 249.641 97.186,250.805 99.695,251.663 100.645 C 251.984 101.000,252.246 101.471,252.246 101.691 C 252.246 101.911,252.471 102.178,252.745 102.283 C 253.020 102.389,253.245 102.767,253.245 103.123 C 253.245 103.480,253.357 103.821,253.494 103.882 C 253.840 104.036,257.571 111.455,257.571 111.989 C 257.571 112.228,257.684 112.474,257.822 112.535 C 258.082 112.650,259.753 115.983,260.713 118.303 C 261.016 119.035,261.406 119.894,261.580 120.212 C 261.754 120.530,261.897 120.986,261.897 121.227 C 261.897 121.843,262.678 123.455,262.978 123.458 C 263.116 123.460,263.228 123.735,263.228 124.070 C 263.228 124.405,263.602 125.416,264.059 126.316 C 264.515 127.217,264.890 128.290,264.890 128.702 C 264.891 129.114,265.042 129.451,265.225 129.451 C 265.408 129.451,265.557 129.750,265.557 130.116 C 265.557 130.483,265.707 130.782,265.890 130.782 C 266.073 130.782,266.223 131.447,266.223 132.260 C 266.223 133.073,266.373 133.830,266.556 133.943 C 266.739 134.057,266.889 134.880,266.889 135.774 C 266.889 136.667,267.038 137.491,267.221 137.604 C 267.404 137.717,267.554 138.541,267.554 139.434 C 267.554 140.328,267.689 141.143,267.855 141.245 C 268.020 141.347,268.263 143.003,268.394 144.925 C 268.525 146.847,268.764 148.419,268.925 148.419 C 269.086 148.419,269.218 149.084,269.218 149.897 C 269.218 150.710,269.368 151.468,269.551 151.581 C 269.734 151.694,269.884 152.517,269.884 153.411 C 269.884 154.305,270.033 155.128,270.216 155.241 C 270.399 155.354,270.549 156.178,270.549 157.072 C 270.549 157.965,270.699 158.789,270.882 158.902 C 271.065 159.015,271.215 159.913,271.215 160.899 C 271.215 161.884,271.353 162.775,271.523 162.880 C 271.692 162.985,271.936 164.419,272.065 166.068 C 272.194 167.717,272.430 169.147,272.589 169.245 C 272.748 169.343,272.879 170.238,272.879 171.234 C 272.879 172.230,273.028 173.045,273.211 173.045 C 273.418 173.045,273.544 174.931,273.544 178.037 C 273.544 181.143,273.418 183.028,273.211 183.028 C 273.019 183.028,272.879 184.082,272.879 185.524 C 272.879 186.897,272.751 188.020,272.595 188.020 C 272.439 188.020,272.223 189.389,272.114 191.063 C 272.006 192.737,271.759 194.264,271.566 194.457 C 271.373 194.651,271.215 195.158,271.215 195.584 C 271.215 196.824,270.298 196.882,269.097 195.718 C 268.506 195.145,267.879 194.674,267.705 194.672 C 267.530 194.670,266.880 194.146,266.259 193.507 C 265.639 192.869,264.988 192.346,264.812 192.346 C 264.637 192.346,264.074 191.897,263.561 191.348 C 263.048 190.799,262.424 190.349,262.175 190.349 C 261.926 190.349,261.441 189.975,261.097 189.517 C 260.754 189.060,260.280 188.686,260.046 188.686 C 259.811 188.686,259.031 188.087,258.314 187.354 C 257.596 186.622,256.862 186.023,256.682 186.023 C 256.503 186.023,256.004 185.649,255.574 185.191 C 255.144 184.734,254.623 184.359,254.417 184.359 C 254.210 184.359,253.533 183.835,252.912 183.195 C 252.291 182.554,251.616 182.030,251.411 182.030 C 251.207 182.030,250.609 181.581,250.083 181.032 C 249.557 180.483,248.998 180.033,248.841 180.033 C 248.684 180.033,248.193 179.671,247.749 179.227 C 247.306 178.784,246.639 178.324,246.267 178.206 C 245.895 178.088,245.591 177.777,245.591 177.515 C 245.591 177.253,245.399 177.038,245.165 177.038 C 244.931 177.038,244.523 176.739,244.260 176.373 C 243.996 176.007,243.618 175.707,243.419 175.707 C 243.221 175.707,242.551 175.183,241.930 174.542 C 241.309 173.902,240.629 173.378,240.419 173.378 C 240.209 173.378,239.766 173.078,239.434 172.712 C 239.103 172.346,238.660 172.047,238.450 172.047 C 238.239 172.047,237.559 171.522,236.938 170.882 C 236.318 170.241,235.628 169.717,235.405 169.717 C 235.183 169.717,234.623 169.268,234.161 168.719 C 233.699 168.170,233.087 167.720,232.800 167.720 C 232.514 167.720,232.280 167.531,232.280 167.300 C 232.280 167.069,231.943 166.732,231.531 166.551 C 231.119 166.371,230.634 165.886,230.454 165.474 C 230.273 165.062,229.841 164.725,229.494 164.725 C 229.147 164.725,228.621 164.460,228.325 164.135 C 227.793 163.551,226.675 162.733,224.992 161.697 C 224.462 161.371,224.044 161.291,223.914 161.490 C 223.797 161.669,223.528 161.708,223.316 161.577 C 223.041 161.407,223.031 161.215,223.282 160.913 C 223.663 160.454,223.191 159.906,221.845 159.242 C 221.452 159.048,220.984 158.556,220.803 158.147 C 220.616 157.724,220.178 157.404,219.787 157.404 C 219.408 157.404,218.591 156.880,217.970 156.240 C 217.349 155.599,216.669 155.075,216.459 155.075 C 216.249 155.075,215.805 154.775,215.474 154.409 C 215.066 153.958,214.449 153.744,213.561 153.744 C 212.530 153.744,212.213 153.602,212.076 153.078 C 211.981 152.712,211.695 152.413,211.442 152.413 C 211.189 152.413,210.982 152.194,210.982 151.927 C 210.982 151.548,210.377 151.420,208.236 151.345 L 205.491 151.248 205.388 150.000 L 205.284 148.752 199.667 148.752 L 194.050 148.752 193.947 150.000 L 193.844 151.248 192.097 151.349 C 190.840 151.421,190.349 151.584,190.349 151.931 C 190.349 152.256,189.984 152.413,189.224 152.413 C 188.377 152.413,188.054 152.578,187.924 153.078 C 187.790 153.588,187.470 153.744,186.554 153.744 C 185.580 153.744,185.358 153.867,185.358 154.409 C 185.358 154.944,185.136 155.075,184.234 155.075 C 183.616 155.075,182.923 155.300,182.696 155.574 C 182.468 155.849,182.104 156.073,181.888 156.073 C 181.672 156.073,180.979 156.607,180.348 157.260 C 179.717 157.912,178.715 158.678,178.120 158.962 C 177.525 159.245,177.038 159.684,177.038 159.938 C 177.038 160.192,176.814 160.399,176.540 160.399 C 176.266 160.399,175.418 160.986,174.657 161.703 C 173.849 162.465,172.795 163.097,172.124 163.223 C 171.380 163.362,170.915 163.666,170.806 164.082 C 170.714 164.436,170.431 164.725,170.177 164.725 C 169.924 164.725,169.717 164.906,169.717 165.126 C 169.717 165.799,167.633 167.720,166.902 167.720 C 166.511 167.720,166.073 168.040,165.886 168.463 C 165.705 168.872,165.208 169.378,164.782 169.589 C 164.355 169.800,163.524 170.439,162.935 171.009 C 162.347 171.580,161.708 172.047,161.517 172.047 C 161.325 172.047,160.897 172.346,160.566 172.712 C 160.234 173.078,159.819 173.378,159.642 173.378 C 159.466 173.378,158.675 174.052,157.886 174.875 C 157.097 175.699,156.282 176.373,156.074 176.373 C 155.867 176.373,155.319 176.822,154.857 177.371 C 154.395 177.920,153.801 178.369,153.538 178.369 C 153.274 178.369,152.577 178.894,151.989 179.534 C 151.401 180.175,150.761 180.699,150.567 180.699 C 150.373 180.699,149.706 181.223,149.085 181.864 C 148.464 182.504,147.789 183.028,147.584 183.028 C 147.380 183.028,146.782 183.478,146.256 184.027 C 145.730 184.576,145.133 185.025,144.928 185.025 C 144.724 185.025,144.049 185.549,143.428 186.190 C 142.807 186.830,142.177 187.354,142.028 187.354 C 141.879 187.354,141.288 187.804,140.713 188.353 C 140.138 188.902,139.546 189.351,139.396 189.351 C 139.246 189.351,138.600 189.875,137.959 190.516 C 137.318 191.156,136.666 191.681,136.508 191.681 C 136.351 191.681,135.871 192.055,135.441 192.512 C 135.011 192.970,134.484 193.344,134.270 193.344 C 134.056 193.344,133.609 193.644,133.278 194.010 C 132.947 194.376,132.474 194.676,132.228 194.676 C 131.982 194.676,131.780 194.891,131.780 195.155 C 131.780 195.952,131.083 196.124,130.887 195.375 C 130.787 194.990,130.572 194.676,130.410 194.676 C 130.249 194.676,130.116 194.160,130.116 193.530 C 130.116 192.901,129.967 192.293,129.784 192.180 C 129.601 192.067,129.451 191.114,129.451 190.064 C 129.451 189.013,129.275 187.977,129.059 187.761 C 128.481 187.183,128.459 170.244,129.035 169.668 C 129.264 169.439,129.451 168.766,129.451 168.173 C 129.451 167.580,129.601 167.002,129.784 166.889 C 129.967 166.775,130.116 166.102,130.116 165.391 C 130.116 164.681,130.266 164.007,130.449 163.894 C 130.632 163.780,130.782 163.023,130.782 162.210 C 130.782 161.397,130.932 160.732,131.115 160.732 C 131.298 160.732,131.448 160.067,131.448 159.254 C 131.448 158.441,131.578 157.696,131.737 157.598 C 131.896 157.499,132.132 156.070,132.261 154.421 C 132.390 152.772,132.634 151.337,132.803 151.233 C 132.973 151.128,133.111 150.386,133.111 149.584 C 133.111 148.782,133.261 148.033,133.444 147.920 C 133.627 147.807,133.777 147.133,133.777 146.423 C 133.777 145.712,133.927 145.038,134.110 144.925 C 134.293 144.812,134.443 144.054,134.443 143.242 C 134.443 142.429,134.592 141.764,134.775 141.764 C 134.969 141.764,135.108 140.661,135.108 139.121 C 135.108 137.668,135.236 136.400,135.392 136.303 C 135.548 136.207,135.762 135.098,135.867 133.840 C 135.983 132.453,136.330 131.069,136.748 130.325 C 137.127 129.650,137.438 128.803,137.438 128.442 C 137.438 128.082,137.587 127.787,137.770 127.787 C 137.953 127.787,138.103 127.488,138.103 127.121 C 138.103 126.755,138.215 126.455,138.353 126.453 C 138.671 126.450,139.434 124.823,139.436 124.143 C 139.437 123.859,139.662 123.198,139.935 122.674 C 140.209 122.150,140.433 121.439,140.433 121.093 C 140.433 120.748,140.582 120.466,140.765 120.466 C 140.948 120.466,141.098 120.166,141.098 119.800 C 141.098 119.434,141.210 119.134,141.348 119.132 C 141.628 119.129,142.432 117.527,142.424 116.989 C 142.416 116.512,146.185 109.013,146.502 108.874 C 146.642 108.813,146.755 108.542,146.755 108.273 C 146.755 108.003,147.130 107.111,147.587 106.292 C 148.045 105.472,148.419 104.582,148.419 104.314 C 148.419 104.046,148.569 103.827,148.752 103.827 C 148.935 103.827,149.085 103.626,149.085 103.379 C 149.085 103.133,149.384 102.661,149.750 102.329 C 150.116 101.998,150.416 101.526,150.416 101.280 C 150.416 101.033,150.543 100.832,150.699 100.832 C 150.854 100.832,151.259 100.158,151.599 99.334 C 151.938 98.511,152.335 97.837,152.481 97.837 C 152.626 97.837,152.745 97.388,152.745 96.839 C 152.745 96.290,152.895 95.840,153.078 95.840 C 153.261 95.840,153.411 95.475,153.411 95.028 C 153.411 94.581,153.561 94.123,153.744 94.010 C 153.927 93.897,154.077 93.373,154.077 92.845 C 154.077 92.318,154.204 91.807,154.361 91.711 C 154.517 91.614,154.746 90.448,154.869 89.119 C 154.993 87.791,155.239 86.558,155.417 86.380 C 155.595 86.202,155.740 85.413,155.740 84.626 C 155.740 83.839,155.890 83.195,156.073 83.195 C 156.256 83.195,156.406 82.679,156.406 82.050 C 156.406 81.420,156.556 80.812,156.739 80.699 C 156.922 80.586,157.072 79.978,157.072 79.348 C 157.072 78.718,157.221 78.203,157.404 78.203 C 157.587 78.203,157.737 77.538,157.737 76.725 C 157.737 75.912,157.874 75.163,158.042 75.059 C 158.209 74.955,158.452 73.746,158.580 72.372 C 158.709 70.998,158.946 69.792,159.108 69.693 C 159.269 69.593,159.401 68.996,159.401 68.366 C 159.401 67.737,159.551 67.221,159.734 67.221 C 159.917 67.221,160.067 66.547,160.067 65.724 C 160.067 64.900,160.216 64.226,160.399 64.226 C 160.582 64.226,160.732 63.412,160.732 62.416 C 160.732 61.420,160.882 60.512,161.065 60.399 C 161.248 60.286,161.398 59.463,161.398 58.569 C 161.398 57.676,161.531 56.862,161.694 56.761 C 161.858 56.660,162.098 55.078,162.230 53.245 C 162.361 51.411,162.602 49.829,162.765 49.728 C 162.928 49.627,163.062 48.739,163.062 47.754 C 163.062 46.769,163.211 45.870,163.394 45.757 C 163.577 45.644,163.727 44.820,163.727 43.927 C 163.727 43.033,163.877 42.210,164.060 42.097 C 164.243 41.983,164.393 41.160,164.393 40.266 C 164.393 39.373,164.542 38.549,164.725 38.436 C 164.908 38.323,165.058 37.520,165.058 36.653 C 165.058 35.785,165.204 34.929,165.382 34.751 C 165.560 34.574,165.796 32.485,165.907 30.109 C 166.018 27.734,166.254 25.487,166.431 25.117 C 167.057 23.812,166.650 19.490,165.890 19.365 C 163.776 19.018,162.146 17.639,160.868 15.114 C 160.047 13.493,159.737 10.316,160.399 10.316 C 160.582 10.316,160.732 10.017,160.732 9.651 C 160.732 9.285,160.882 8.985,161.065 8.985 C 161.248 8.985,161.398 8.807,161.398 8.590 C 161.398 8.081,162.734 6.656,163.212 6.656 C 163.415 6.656,163.796 6.356,164.060 5.990 C 164.324 5.624,164.872 5.324,165.278 5.324 C 165.685 5.324,166.110 5.175,166.223 4.992 C 166.507 4.532,235.157 4.532,235.441 4.992 M206.262 164.809 C 206.367 165.721,206.374 165.724,209.007 165.724 C 211.033 165.724,211.647 165.831,211.647 166.184 C 211.647 166.437,211.947 166.723,212.313 166.819 C 212.679 166.914,212.978 167.231,212.978 167.523 C 212.978 167.930,213.328 168.053,214.476 168.053 C 215.752 168.053,215.973 168.152,215.973 168.719 C 215.973 169.236,216.195 169.384,216.972 169.384 C 217.521 169.384,217.970 169.527,217.970 169.702 C 217.970 170.328,219.636 171.670,220.541 171.774 C 221.268 171.858,221.487 172.074,221.570 172.795 C 221.650 173.491,221.854 173.710,222.423 173.710 C 222.968 173.710,223.294 174.025,223.627 174.875 C 224.025 175.889,224.231 176.040,225.218 176.040 C 226.061 176.040,226.395 176.206,226.521 176.687 C 226.624 177.082,227.033 177.373,227.571 177.435 C 228.103 177.497,228.583 177.834,228.781 178.286 C 229.023 178.838,229.389 179.035,230.173 179.035 C 231.086 179.035,231.252 179.165,231.342 179.950 C 231.422 180.643,231.649 180.889,232.280 180.963 C 233.131 181.063,233.943 182.266,233.943 183.427 C 233.943 183.916,234.221 184.027,235.441 184.027 C 236.686 184.027,236.938 184.132,236.938 184.653 C 236.938 185.001,237.236 185.358,237.606 185.455 C 238.024 185.564,238.351 186.015,238.480 186.658 C 238.673 187.624,238.777 187.687,240.173 187.687 C 241.380 187.687,241.692 187.812,241.834 188.353 C 241.929 188.719,242.187 189.018,242.406 189.018 C 242.625 189.018,243.010 189.542,243.261 190.183 C 243.685 191.263,243.822 191.348,245.154 191.348 C 246.463 191.348,246.589 191.421,246.589 192.180 C 246.589 192.678,246.779 193.012,247.064 193.012 C 247.710 193.012,248.586 194.861,248.586 196.224 C 248.586 197.306,248.625 197.338,249.948 197.338 C 251.008 197.338,251.347 197.478,251.476 197.973 C 251.568 198.322,251.928 198.682,252.277 198.773 C 252.626 198.865,252.912 199.178,252.912 199.470 C 252.912 199.854,253.233 200.000,254.077 200.000 C 255.097 200.000,255.241 200.103,255.241 200.832 C 255.241 201.506,255.406 201.664,256.104 201.664 C 256.688 201.664,257.024 201.880,257.142 202.329 C 257.237 202.696,257.505 202.995,257.737 202.995 C 257.969 202.995,258.237 203.295,258.333 203.661 C 258.460 204.147,258.787 204.326,259.547 204.326 C 260.164 204.326,260.664 204.529,260.778 204.825 C 260.884 205.100,261.178 205.324,261.433 205.324 C 261.688 205.324,261.897 205.624,261.897 205.990 C 261.897 206.553,262.119 206.656,263.332 206.656 C 264.658 206.656,264.802 206.743,265.215 207.795 C 265.461 208.422,265.938 209.007,266.275 209.095 C 266.672 209.199,266.889 209.560,266.889 210.119 C 266.889 210.912,267.003 210.982,268.303 210.984 C 269.773 210.987,270.549 211.814,270.549 213.377 C 270.549 213.866,270.826 213.977,272.047 213.977 C 273.322 213.977,273.544 214.075,273.544 214.642 C 273.544 215.025,273.766 215.308,274.067 215.308 C 274.665 215.308,275.541 216.085,275.541 216.615 C 275.541 216.811,276.154 216.972,276.903 216.972 C 277.963 216.972,278.302 217.112,278.431 217.607 C 278.523 217.956,278.879 218.315,279.223 218.405 C 279.654 218.518,279.916 218.992,280.067 219.933 C 280.284 221.295,280.288 221.298,281.771 221.298 C 282.977 221.298,283.290 221.423,283.431 221.963 C 283.527 222.329,283.812 222.629,284.065 222.629 C 284.319 222.629,284.526 222.854,284.526 223.128 C 284.526 223.479,284.881 223.627,285.722 223.627 C 286.638 223.627,286.958 223.783,287.092 224.293 C 287.187 224.659,287.473 224.958,287.726 224.958 C 287.979 224.958,288.186 225.258,288.186 225.624 C 288.186 226.142,288.408 226.290,289.185 226.290 C 289.829 226.290,290.183 226.458,290.183 226.766 C 290.183 227.027,290.520 227.289,290.932 227.348 C 291.468 227.424,291.710 227.714,291.786 228.369 C 291.860 229.016,292.080 229.285,292.535 229.285 C 292.999 229.285,293.178 229.516,293.178 230.116 C 293.178 230.893,293.289 230.948,294.843 230.948 C 296.467 230.948,296.522 230.981,297.084 232.280 C 297.402 233.012,297.850 233.611,298.082 233.611 C 298.313 233.611,298.502 233.835,298.502 234.110 C 298.502 234.480,298.891 234.609,300.001 234.609 C 301.428 234.609,301.527 234.671,302.069 235.924 C 302.583 237.110,302.772 237.250,303.979 237.339 C 305.013 237.415,305.347 237.590,305.442 238.103 C 305.510 238.469,305.773 238.888,306.027 239.035 C 306.281 239.181,306.489 239.518,306.489 239.784 C 306.489 240.049,306.639 240.266,306.822 240.266 C 307.005 240.266,307.155 240.566,307.155 240.932 C 307.155 241.499,307.377 241.597,308.652 241.597 C 309.705 241.597,310.150 241.734,310.150 242.058 C 310.150 242.311,310.449 242.596,310.815 242.692 C 311.181 242.788,311.481 243.087,311.481 243.358 C 311.481 243.628,311.780 243.927,312.146 244.023 C 312.512 244.119,312.812 244.436,312.812 244.728 C 312.812 245.112,313.133 245.258,313.977 245.258 C 314.982 245.258,315.141 245.366,315.141 246.051 C 315.141 246.564,315.376 246.906,315.807 247.018 C 316.257 247.136,316.473 247.472,316.473 248.055 C 316.473 248.820,316.606 248.918,317.637 248.918 C 318.451 248.918,318.802 249.069,318.802 249.418 C 318.802 249.692,319.041 249.917,319.332 249.917 C 319.624 249.917,319.941 250.216,320.037 250.582 C 320.149 251.013,320.491 251.248,321.004 251.248 C 321.575 251.248,321.797 251.434,321.797 251.913 C 321.797 252.431,322.019 252.579,322.795 252.579 C 323.344 252.579,323.794 252.729,323.794 252.912 C 323.794 253.095,324.023 253.245,324.303 253.245 C 324.584 253.245,324.899 253.469,325.004 253.744 C 325.128 254.067,325.644 254.243,326.467 254.243 C 327.738 254.243,328.785 255.393,328.785 256.790 C 328.785 257.036,329.099 257.238,329.482 257.238 C 329.899 257.238,330.249 257.505,330.353 257.903 C 330.482 258.398,330.807 258.569,331.614 258.569 C 332.421 258.569,332.746 258.740,332.875 259.235 C 332.971 259.601,333.288 259.900,333.579 259.900 C 333.871 259.900,334.110 260.125,334.110 260.399 C 334.110 260.762,334.483 260.899,335.472 260.899 C 336.532 260.899,336.871 261.039,337.000 261.533 C 337.092 261.882,337.452 262.243,337.801 262.334 C 338.220 262.444,338.436 262.794,338.436 263.363 C 338.436 263.838,338.586 264.226,338.769 264.226 C 338.952 264.226,339.101 264.442,339.101 264.706 C 339.101 265.033,339.553 265.219,340.516 265.289 C 341.781 265.380,341.941 265.487,342.035 266.306 C 342.099 266.859,342.342 267.221,342.649 267.221 C 342.928 267.221,343.235 267.521,343.331 267.887 C 343.427 268.253,343.712 268.552,343.966 268.552 C 344.219 268.552,344.426 268.777,344.426 269.052 C 344.426 269.403,344.781 269.551,345.622 269.551 C 346.538 269.551,346.858 269.707,346.992 270.216 C 347.101 270.635,347.446 270.882,347.920 270.882 C 348.395 270.882,348.739 271.129,348.849 271.547 C 348.966 271.997,349.302 272.213,349.886 272.213 C 350.431 272.213,350.749 272.397,350.749 272.712 C 350.749 272.987,350.973 273.211,351.248 273.211 C 351.525 273.211,351.747 273.507,351.747 273.877 C 351.747 274.395,351.969 274.542,352.745 274.542 C 353.588 274.542,353.744 274.672,353.744 275.374 C 353.744 275.997,353.919 276.206,354.440 276.206 C 354.857 276.206,355.207 276.474,355.311 276.872 C 355.426 277.311,355.765 277.537,356.310 277.537 C 356.854 277.537,357.193 277.763,357.308 278.203 C 357.437 278.697,357.762 278.869,358.567 278.869 C 359.164 278.869,359.839 279.093,360.067 279.368 C 360.294 279.642,360.669 279.867,360.899 279.867 C 361.129 279.867,361.843 280.466,362.484 281.198 C 363.126 281.930,363.844 282.529,364.079 282.529 C 364.314 282.529,365.152 283.203,365.942 284.027 C 366.731 284.850,367.533 285.524,367.725 285.524 C 367.917 285.524,368.534 286.048,369.096 286.689 C 369.659 287.329,370.305 287.854,370.532 287.854 C 370.759 287.854,371.216 288.153,371.547 288.519 C 371.879 288.885,372.515 289.185,372.961 289.185 C 373.493 289.185,373.833 289.414,373.947 289.850 C 374.054 290.261,374.401 290.516,374.852 290.516 C 375.378 290.516,375.711 290.842,376.040 291.681 C 376.432 292.679,376.651 292.845,377.577 292.845 C 378.509 292.845,378.672 292.972,378.763 293.760 C 378.845 294.469,379.067 294.699,379.750 294.778 C 380.301 294.841,380.697 295.131,380.807 295.551 C 380.903 295.920,381.293 296.304,381.672 296.403 C 382.063 296.505,382.363 296.856,382.363 297.210 C 382.363 297.685,382.605 297.837,383.361 297.837 C 384.027 297.837,384.359 298.003,384.359 298.336 C 384.359 298.937,385.525 300.164,386.106 300.174 C 386.335 300.178,386.970 300.702,387.518 301.338 C 388.065 301.975,388.678 302.496,388.880 302.496 C 389.083 302.496,389.519 302.795,389.850 303.161 C 390.182 303.527,390.612 303.827,390.807 303.827 C 391.511 303.827,394.676 307.288,394.676 308.059 C 394.676 308.477,394.825 308.819,395.008 308.819 C 395.191 308.819,395.341 309.118,395.341 309.484 C 395.341 309.850,395.491 310.150,395.674 310.150 C 395.857 310.150,396.007 310.515,396.007 310.962 C 396.007 311.409,396.156 311.867,396.339 311.980 C 396.793 312.261,396.761 316.553,396.297 317.705 C 394.661 321.758,391.960 325.788,390.878 325.792 C 390.679 325.793,389.779 326.167,388.879 326.624 C 387.978 327.080,386.967 327.454,386.632 327.454 C 386.297 327.454,386.023 327.604,386.023 327.787 C 386.023 328.008,323.683 328.120,199.667 328.120 C 75.652 328.120,13.311 328.008,13.311 327.787 C 13.311 327.604,13.010 327.454,12.641 327.454 C 12.013 327.454,10.688 326.867,10.316 326.424 C 10.225 326.315,9.775 326.130,9.318 326.014 C 8.258 325.743,5.324 323.039,5.324 322.332 C 5.324 322.038,5.210 321.797,5.070 321.797 C 4.727 321.797,3.661 319.292,3.661 318.487 C 3.661 318.133,3.511 317.750,3.328 317.637 C 2.889 317.366,2.889 311.814,3.328 311.814 C 3.511 311.814,3.661 311.506,3.661 311.130 C 3.661 310.237,4.815 307.715,5.474 307.168 C 5.758 306.933,5.990 306.596,5.990 306.420 C 5.990 305.954,9.361 302.496,9.815 302.496 C 10.027 302.496,10.552 302.121,10.982 301.664 C 11.412 301.206,11.939 300.832,12.153 300.832 C 12.367 300.832,12.813 300.532,13.145 300.166 C 13.476 299.800,13.922 299.501,14.137 299.501 C 14.351 299.501,14.878 299.126,15.308 298.669 C 15.738 298.211,16.218 297.837,16.375 297.837 C 16.780 297.837,18.968 295.600,18.968 295.186 C 18.968 294.997,19.183 294.842,19.445 294.842 C 19.719 294.842,19.968 294.451,20.028 293.927 C 20.122 293.108,20.282 293.001,21.547 292.909 C 22.553 292.837,22.962 292.659,22.962 292.296 C 22.962 292.015,23.261 291.706,23.627 291.611 C 23.993 291.515,24.293 291.229,24.293 290.976 C 24.293 290.677,24.679 290.516,25.395 290.516 C 26.186 290.516,26.768 290.233,27.454 289.517 C 27.980 288.968,28.607 288.519,28.848 288.519 C 29.088 288.519,29.285 288.295,29.285 288.020 C 29.285 287.724,29.590 287.521,30.036 287.521 C 30.782 287.521,32.637 285.807,33.047 284.740 C 33.163 284.439,33.463 284.193,33.715 284.193 C 34.407 284.193,36.368 283.157,36.977 282.471 C 37.273 282.137,37.685 281.864,37.893 281.864 C 38.100 281.864,38.270 281.638,38.270 281.363 C 38.270 281.088,38.869 280.604,39.601 280.287 C 40.333 279.969,40.932 279.521,40.932 279.289 C 40.932 279.058,41.139 278.869,41.392 278.869 C 41.645 278.869,41.931 278.569,42.027 278.203 C 42.160 277.693,42.480 277.537,43.396 277.537 C 44.249 277.537,44.592 277.391,44.592 277.028 C 44.592 276.748,44.817 276.432,45.092 276.327 C 45.366 276.221,45.591 275.838,45.591 275.474 C 45.591 275.103,45.870 274.740,46.225 274.647 C 46.575 274.556,46.935 274.195,47.026 273.846 C 47.143 273.400,47.488 273.211,48.186 273.211 C 48.763 273.211,49.260 273.002,49.372 272.712 C 49.477 272.438,49.792 272.213,50.073 272.213 C 50.361 272.213,50.582 271.923,50.582 271.547 C 50.582 270.985,50.804 270.882,52.018 270.882 C 53.349 270.882,53.486 270.798,53.910 269.717 C 54.162 269.077,54.578 268.552,54.835 268.552 C 55.093 268.552,55.382 268.253,55.478 267.887 C 55.618 267.349,55.932 267.221,57.110 267.221 C 58.293 267.221,58.569 267.108,58.569 266.622 C 58.569 264.930,59.322 264.232,61.148 264.229 C 62.867 264.226,62.895 264.210,62.895 263.228 C 62.895 262.477,63.048 262.230,63.513 262.230 C 63.924 262.230,64.233 261.869,64.438 261.148 C 64.718 260.168,64.881 260.057,66.187 259.962 C 67.280 259.883,67.668 259.703,67.796 259.214 C 67.889 258.859,68.154 258.569,68.386 258.569 C 68.618 258.569,68.886 258.270,68.982 257.903 C 69.115 257.394,69.436 257.238,70.352 257.238 C 71.405 257.238,71.547 257.139,71.547 256.406 C 71.547 255.920,71.739 255.574,72.008 255.574 C 72.261 255.574,72.546 255.275,72.642 254.908 C 72.738 254.542,73.055 254.243,73.347 254.243 C 73.638 254.243,73.877 254.018,73.877 253.744 C 73.877 253.419,74.202 253.245,74.809 253.245 C 76.129 253.245,77.532 252.517,77.535 251.830 C 77.536 251.483,77.790 251.248,78.164 251.248 C 78.511 251.248,78.869 250.951,78.965 250.582 C 79.092 250.098,79.419 249.917,80.169 249.917 C 80.823 249.917,81.198 249.749,81.198 249.456 C 81.198 249.203,81.498 248.918,81.864 248.822 C 82.313 248.704,82.529 248.368,82.529 247.785 C 82.529 246.984,82.637 246.922,84.027 246.922 C 85.247 246.922,85.524 246.811,85.524 246.323 C 85.524 245.454,86.293 243.932,86.733 243.929 C 86.941 243.928,87.189 243.627,87.284 243.261 C 87.426 242.721,87.738 242.596,88.939 242.596 C 90.324 242.596,90.439 242.526,90.728 241.514 C 91.014 240.513,91.153 240.425,92.606 240.331 C 93.905 240.247,94.176 240.118,94.176 239.582 C 94.176 239.226,94.401 238.935,94.676 238.935 C 94.986 238.935,95.175 238.621,95.175 238.103 C 95.175 237.646,95.307 237.271,95.469 237.271 C 95.630 237.271,95.841 236.972,95.937 236.606 C 96.074 236.081,96.391 235.940,97.434 235.940 C 98.478 235.940,98.794 235.799,98.932 235.275 C 99.049 234.825,99.386 234.609,99.969 234.609 C 100.514 234.609,100.832 234.425,100.832 234.110 C 100.832 233.761,101.183 233.611,101.997 233.611 C 102.841 233.611,103.161 233.465,103.161 233.080 C 103.161 232.789,103.461 232.472,103.827 232.376 C 104.193 232.280,104.493 231.981,104.493 231.710 C 104.493 231.440,104.792 231.141,105.158 231.045 C 105.589 230.932,105.824 230.591,105.824 230.078 C 105.824 229.393,105.983 229.285,106.988 229.285 C 108.020 229.285,108.153 229.186,108.153 228.421 C 108.153 227.838,108.369 227.502,108.819 227.384 C 109.185 227.289,109.484 227.003,109.484 226.750 C 109.484 226.433,109.908 226.290,110.846 226.290 C 111.929 226.290,112.244 226.153,112.383 225.624 C 112.479 225.258,112.689 224.958,112.851 224.958 C 113.012 224.958,113.145 224.659,113.145 224.293 C 113.145 223.923,113.367 223.627,113.644 223.627 C 113.918 223.627,114.143 223.403,114.143 223.128 C 114.143 222.760,114.527 222.629,115.602 222.629 C 117.137 222.629,117.238 222.521,117.773 220.300 C 117.939 219.611,118.202 219.449,119.303 219.360 C 120.034 219.300,120.752 219.038,120.898 218.777 C 121.045 218.516,121.346 218.303,121.569 218.303 C 121.791 218.303,122.232 217.704,122.549 216.972 C 123.062 215.789,123.253 215.641,124.270 215.641 C 125.804 215.641,127.121 215.106,127.121 214.484 C 127.121 214.126,127.464 213.977,128.286 213.977 C 129.318 213.977,129.451 213.878,129.451 213.114 C 129.451 212.530,129.667 212.194,130.116 212.076 C 130.483 211.981,130.782 211.713,130.782 211.481 C 130.782 211.249,131.082 210.981,131.448 210.885 C 131.897 210.768,132.113 210.431,132.113 209.848 C 132.113 209.084,132.246 208.985,133.278 208.985 C 134.091 208.985,134.443 208.834,134.443 208.486 C 134.443 208.211,134.681 207.987,134.973 207.987 C 135.265 207.987,135.582 207.687,135.677 207.321 C 135.807 206.827,136.131 206.656,136.938 206.656 C 137.746 206.656,138.070 206.484,138.200 205.990 C 138.300 205.606,138.653 205.324,139.035 205.324 C 139.398 205.324,139.782 205.100,139.887 204.825 C 139.993 204.551,140.308 204.326,140.589 204.326 C 140.876 204.326,141.098 204.036,141.098 203.661 C 141.098 203.100,141.321 202.995,142.512 202.992 C 143.983 202.990,144.759 202.163,144.759 200.599 C 144.759 200.111,145.036 200.000,146.256 200.000 C 147.405 200.000,147.754 199.876,147.754 199.470 C 147.754 199.178,148.016 198.871,148.336 198.787 C 148.969 198.622,149.750 197.233,149.750 196.273 C 149.750 195.785,150.028 195.674,151.248 195.674 C 152.524 195.674,152.745 195.575,152.745 195.008 C 152.745 194.578,152.967 194.343,153.372 194.343 C 153.719 194.343,154.077 194.046,154.173 193.677 C 154.300 193.193,154.627 193.012,155.376 193.012 C 156.253 193.012,156.406 192.888,156.406 192.180 C 156.406 191.570,156.583 191.348,157.072 191.348 C 157.515 191.348,157.737 191.126,157.737 190.682 C 157.737 190.316,157.945 190.017,158.198 190.017 C 158.452 190.017,158.908 189.493,159.212 188.852 C 159.622 187.988,159.976 187.687,160.581 187.687 C 161.176 187.687,161.398 187.506,161.398 187.022 C 161.398 186.483,161.620 186.356,162.562 186.356 C 163.376 186.356,163.727 186.206,163.727 185.857 C 163.727 185.582,163.966 185.358,164.257 185.358 C 164.549 185.358,164.866 185.058,164.962 184.692 C 165.058 184.326,165.333 184.027,165.574 184.027 C 165.815 184.027,166.060 183.615,166.118 183.111 C 166.214 182.274,166.356 182.188,167.803 182.095 C 169.371 181.994,169.384 181.984,169.599 180.637 C 169.747 179.711,170.012 179.228,170.432 179.118 C 170.771 179.030,171.048 178.746,171.048 178.489 C 171.048 177.933,172.378 177.371,173.693 177.371 C 174.351 177.371,174.683 177.172,174.805 176.705 C 174.901 176.339,175.200 176.040,175.471 176.040 C 175.741 176.040,176.041 175.740,176.136 175.374 C 176.232 175.008,176.549 174.709,176.841 174.709 C 177.132 174.709,177.371 174.492,177.371 174.227 C 177.371 173.881,177.860 173.717,179.106 173.645 C 180.767 173.548,180.850 173.498,181.060 172.465 C 181.334 171.117,181.925 170.383,182.736 170.383 C 183.080 170.383,183.361 170.158,183.361 169.884 C 183.361 169.538,183.708 169.384,184.487 169.384 C 185.333 169.384,185.656 169.219,185.787 168.719 C 185.919 168.214,186.241 168.053,187.118 168.053 C 187.995 168.053,188.317 167.892,188.449 167.388 C 188.576 166.903,188.903 166.722,189.653 166.722 C 190.346 166.722,190.682 166.559,190.682 166.223 C 190.682 165.840,191.107 165.724,192.512 165.724 C 194.208 165.724,194.343 165.667,194.343 164.947 C 194.343 163.731,194.473 163.707,200.479 163.803 L 206.156 163.894 206.262 164.809 M198.336 190.017 C 198.336 190.200,198.060 190.349,197.722 190.349 C 196.946 190.349,195.207 191.207,194.670 191.854 C 194.445 192.125,194.051 192.346,193.795 192.346 C 193.538 192.346,193.191 192.706,193.024 193.146 C 192.857 193.586,192.570 194.038,192.388 194.151 C 191.907 194.447,191.015 196.336,191.015 197.056 C 191.015 197.394,190.865 197.671,190.682 197.671 C 190.498 197.671,190.349 198.551,190.349 199.648 C 190.349 200.735,190.499 201.717,190.682 201.830 C 190.865 201.943,191.015 202.401,191.015 202.848 C 191.015 203.295,191.128 203.661,191.267 203.661 C 191.405 203.661,191.725 204.147,191.978 204.742 C 192.626 206.267,194.274 207.919,195.391 208.164 C 195.913 208.279,196.339 208.510,196.339 208.679 C 196.339 208.847,196.705 208.985,197.152 208.985 C 197.599 208.985,198.057 209.135,198.170 209.318 C 198.283 209.501,199.256 209.651,200.333 209.651 C 201.409 209.651,202.383 209.501,202.496 209.318 C 202.609 209.135,203.067 208.985,203.514 208.985 C 203.961 208.985,204.326 208.847,204.326 208.679 C 204.326 208.510,204.753 208.279,205.274 208.164 C 206.392 207.919,208.039 206.267,208.688 204.742 C 208.941 204.147,209.261 203.661,209.399 203.661 C 209.537 203.661,209.651 203.295,209.651 202.848 C 209.651 202.401,209.800 201.943,209.983 201.830 C 210.166 201.717,210.316 200.735,210.316 199.648 C 210.316 198.551,210.168 197.671,209.983 197.671 C 209.800 197.671,209.651 197.400,209.651 197.070 C 209.651 194.530,205.491 190.349,202.964 190.349 C 202.615 190.349,202.329 190.200,202.329 190.017 C 202.329 189.832,201.442 189.684,200.333 189.684 C 199.224 189.684,198.336 189.832,198.336 190.017 " stroke="none" fill="#fcfcfc00" fill-rule="evenodd"></path><path id="path1" d="M166.389 5.324 C 166.389 5.507,166.033 5.657,165.598 5.657 C 165.163 5.657,164.621 5.882,164.393 6.156 C 164.165 6.431,163.798 6.656,163.578 6.656 C 161.822 6.656,159.288 13.251,160.707 14.127 C 160.875 14.232,161.107 14.742,161.221 15.261 C 161.535 16.691,164.257 18.968,165.653 18.968 C 166.922 18.968,167.868 24.416,166.722 25.125 C 166.539 25.238,166.389 26.669,166.389 28.306 C 166.389 30.068,166.254 31.281,166.057 31.281 C 165.874 31.281,165.724 32.096,165.724 33.092 C 165.724 34.088,165.590 34.985,165.427 35.086 C 165.264 35.187,165.023 36.769,164.892 38.602 C 164.761 40.436,164.520 42.018,164.357 42.119 C 164.193 42.220,164.060 43.117,164.060 44.113 C 164.060 45.109,163.910 45.923,163.727 45.923 C 163.544 45.923,163.394 46.747,163.394 47.754 C 163.394 48.760,163.245 49.584,163.062 49.584 C 162.879 49.584,162.729 50.399,162.729 51.395 C 162.729 52.391,162.579 53.298,162.396 53.411 C 162.213 53.524,162.063 54.348,162.063 55.241 C 162.063 56.135,161.930 56.948,161.767 57.049 C 161.603 57.150,161.362 58.733,161.231 60.566 C 161.100 62.399,160.859 63.981,160.696 64.082 C 160.533 64.183,160.399 64.922,160.399 65.724 C 160.399 66.526,160.250 67.275,160.067 67.388 C 159.884 67.501,159.734 68.025,159.734 68.552 C 159.734 69.080,159.584 69.604,159.401 69.717 C 159.218 69.830,159.068 70.588,159.068 71.401 C 159.068 72.213,158.918 72.879,158.735 72.879 C 158.552 72.879,158.403 73.394,158.403 74.024 C 158.403 74.653,158.271 75.250,158.109 75.350 C 157.948 75.450,157.711 76.655,157.582 78.030 C 157.453 79.404,157.211 80.613,157.043 80.716 C 156.876 80.820,156.739 81.420,156.739 82.050 C 156.739 82.679,156.589 83.195,156.406 83.195 C 156.223 83.195,156.073 83.860,156.073 84.673 C 156.073 85.485,155.923 86.243,155.740 86.356 C 155.557 86.469,155.408 86.993,155.408 87.521 C 155.408 88.048,155.258 88.572,155.075 88.686 C 154.892 88.799,154.742 89.547,154.742 90.349 C 154.742 91.151,154.610 91.889,154.448 91.989 C 154.287 92.089,154.051 92.994,153.926 94.000 C 153.800 95.007,153.558 95.916,153.388 96.021 C 153.217 96.126,153.078 96.578,153.078 97.025 C 153.078 97.471,152.928 97.837,152.745 97.837 C 152.562 97.837,152.413 98.136,152.413 98.502 C 152.413 98.869,152.263 99.168,152.080 99.168 C 151.897 99.168,151.747 99.343,151.747 99.558 C 151.747 99.772,151.498 100.222,151.194 100.558 C 150.579 101.238,150.233 101.825,148.876 104.493 C 148.364 105.499,147.827 106.373,147.683 106.434 C 147.539 106.495,147.421 106.832,147.421 107.182 C 147.421 107.533,147.308 107.820,147.169 107.820 C 147.031 107.820,146.713 108.307,146.463 108.902 C 145.466 111.271,144.270 113.650,144.022 113.755 C 143.878 113.816,143.760 114.153,143.760 114.504 C 143.760 114.854,143.648 115.143,143.511 115.144 C 143.213 115.147,142.429 116.758,142.429 117.369 C 142.429 118.012,141.312 120.466,141.020 120.466 C 140.880 120.466,140.765 120.761,140.765 121.121 C 140.765 121.482,140.466 122.310,140.100 122.962 C 139.734 123.613,139.434 124.359,139.434 124.618 C 139.434 124.877,139.060 125.794,138.602 126.654 C 138.145 127.515,137.770 128.417,137.770 128.658 C 137.770 128.900,137.471 129.631,137.105 130.283 C 136.739 130.935,136.439 131.763,136.439 132.123 C 136.439 132.484,136.290 132.779,136.106 132.779 C 135.923 132.779,135.774 133.593,135.774 134.589 C 135.774 135.585,135.647 136.478,135.492 136.574 C 135.338 136.669,135.117 138.501,135.002 140.644 C 134.888 142.787,134.640 144.695,134.452 144.883 C 134.264 145.071,134.110 145.869,134.110 146.656 C 134.110 147.443,133.960 148.087,133.777 148.087 C 133.594 148.087,133.444 148.752,133.444 149.564 C 133.444 150.377,133.295 151.135,133.111 151.248 C 132.928 151.361,132.779 152.035,132.779 152.745 C 132.779 153.456,132.629 154.130,132.446 154.243 C 132.263 154.356,132.113 155.180,132.113 156.073 C 132.113 156.967,131.981 157.779,131.820 157.879 C 131.659 157.979,131.421 159.335,131.291 160.892 C 131.161 162.450,130.919 163.809,130.752 163.912 C 130.586 164.015,130.449 164.681,130.449 165.391 C 130.449 166.102,130.300 166.775,130.116 166.889 C 129.933 167.002,129.784 167.601,129.784 168.220 C 129.784 168.839,129.634 169.438,129.451 169.551 C 129.268 169.664,129.118 170.487,129.118 171.381 C 129.118 172.275,128.968 173.098,128.785 173.211 C 128.343 173.485,128.343 181.923,128.785 182.196 C 128.968 182.309,129.118 183.582,129.118 185.025 C 129.118 186.468,129.268 187.740,129.451 187.854 C 129.634 187.967,129.784 188.940,129.784 190.017 C 129.784 191.093,129.933 192.067,130.116 192.180 C 130.300 192.293,130.449 192.734,130.449 193.160 C 130.449 193.585,130.673 194.363,130.946 194.887 C 131.262 195.493,131.444 195.635,131.446 195.276 C 131.447 194.757,132.157 194.229,133.983 193.387 C 134.371 193.208,134.991 192.676,135.362 192.205 C 135.733 191.733,136.257 191.348,136.528 191.348 C 136.799 191.348,137.468 190.824,138.015 190.183 C 138.562 189.542,139.190 189.018,139.410 189.018 C 139.630 189.018,140.188 188.569,140.650 188.020 C 141.112 187.471,141.672 187.022,141.894 187.022 C 142.117 187.022,142.807 186.498,143.428 185.857 C 144.049 185.216,144.726 184.692,144.932 184.692 C 145.139 184.692,145.660 184.318,146.090 183.860 C 146.520 183.403,147.040 183.028,147.245 183.028 C 147.451 183.028,148.204 182.429,148.918 181.697 C 149.633 180.965,150.383 180.366,150.585 180.366 C 150.786 180.366,151.459 179.842,152.080 179.201 C 152.701 178.561,153.349 178.037,153.520 178.037 C 153.692 178.037,154.074 177.773,154.370 177.451 C 154.666 177.128,155.507 176.423,156.240 175.884 C 156.972 175.345,157.968 174.485,158.453 173.974 C 158.938 173.463,159.477 173.045,159.649 173.045 C 159.822 173.045,160.234 172.745,160.566 172.379 C 160.897 172.013,161.341 171.714,161.553 171.714 C 161.765 171.714,162.379 171.249,162.916 170.682 C 163.454 170.114,164.245 169.514,164.674 169.347 C 165.104 169.180,165.533 168.746,165.628 168.382 C 165.735 167.976,166.083 167.720,166.529 167.720 C 167.280 167.720,169.131 166.005,169.492 164.975 C 169.604 164.655,169.926 164.393,170.206 164.393 C 170.486 164.393,170.717 164.205,170.718 163.977 C 170.721 163.527,172.191 162.731,173.028 162.726 C 173.312 162.724,173.909 162.260,174.356 161.695 C 174.802 161.130,175.514 160.536,175.937 160.375 C 176.360 160.215,176.705 159.883,176.705 159.638 C 176.705 159.393,177.226 158.988,177.862 158.739 C 178.498 158.489,179.501 157.787,180.090 157.179 C 180.680 156.571,181.334 156.073,181.544 156.073 C 181.755 156.073,182.198 155.774,182.529 155.408 C 182.894 155.004,183.554 154.742,184.206 154.742 C 185.000 154.742,185.325 154.569,185.454 154.077 C 185.581 153.592,185.908 153.411,186.658 153.411 C 187.351 153.411,187.687 153.248,187.687 152.912 C 187.687 152.566,188.034 152.413,188.813 152.413 C 189.648 152.413,189.983 152.246,190.108 151.766 C 190.245 151.244,190.623 151.099,192.060 151.017 C 193.805 150.917,193.846 150.891,193.948 149.834 L 194.052 148.752 199.855 148.752 L 205.657 148.752 205.657 149.917 L 205.657 151.082 208.319 151.082 C 210.534 151.082,210.982 151.171,210.982 151.612 C 210.982 151.904,211.281 152.220,211.647 152.316 C 212.013 152.412,212.313 152.697,212.313 152.951 C 212.313 153.262,212.723 153.411,213.581 153.411 C 214.390 153.411,215.109 153.652,215.564 154.077 C 215.957 154.443,216.405 154.742,216.560 154.742 C 216.715 154.742,217.349 155.266,217.970 155.907 C 218.624 156.581,219.425 157.072,219.874 157.072 C 220.396 157.072,220.753 157.345,220.967 157.909 C 221.143 158.370,221.626 158.879,222.041 159.041 C 222.456 159.202,223.235 159.798,223.773 160.366 C 224.310 160.933,224.945 161.398,225.184 161.398 C 225.423 161.398,225.805 161.697,226.034 162.063 C 226.263 162.429,226.678 162.729,226.956 162.729 C 227.235 162.729,227.744 163.103,228.087 163.561 C 228.449 164.042,229.048 164.393,229.508 164.393 C 229.960 164.393,230.399 164.644,230.524 164.975 C 230.804 165.714,231.291 166.201,232.030 166.481 C 232.350 166.602,232.612 166.931,232.612 167.211 C 232.612 167.491,232.811 167.720,233.053 167.720 C 233.296 167.720,233.846 168.095,234.276 168.552 C 234.706 169.010,235.227 169.384,235.434 169.384 C 235.640 169.384,236.318 169.908,236.938 170.549 C 237.559 171.190,238.239 171.714,238.450 171.714 C 238.660 171.714,239.103 172.013,239.434 172.379 C 239.766 172.745,240.209 173.045,240.419 173.045 C 240.629 173.045,241.309 173.569,241.930 174.210 C 242.551 174.850,243.231 175.374,243.441 175.374 C 243.652 175.374,244.095 175.674,244.426 176.040 C 244.757 176.406,245.230 176.705,245.476 176.705 C 245.722 176.705,245.923 177.005,245.923 177.371 C 245.923 177.760,246.145 178.037,246.458 178.037 C 246.752 178.037,247.287 178.411,247.647 178.869 C 248.007 179.326,248.487 179.700,248.714 179.700 C 248.941 179.700,249.557 180.150,250.083 180.699 C 250.609 181.248,251.207 181.697,251.411 181.697 C 251.616 181.697,252.291 182.221,252.912 182.862 C 253.533 183.502,254.208 184.027,254.412 184.027 C 254.617 184.027,255.214 184.476,255.740 185.025 C 256.266 185.574,256.864 186.023,257.069 186.023 C 257.273 186.023,257.948 186.547,258.569 187.188 C 259.190 187.829,259.825 188.353,259.981 188.353 C 260.136 188.353,260.602 188.690,261.016 189.101 C 261.429 189.513,262.320 190.225,262.995 190.682 C 263.670 191.140,264.223 191.626,264.224 191.764 C 264.225 191.901,264.422 192.013,264.660 192.013 C 264.899 192.013,265.602 192.537,266.223 193.178 C 266.844 193.819,267.519 194.343,267.723 194.343 C 267.928 194.343,268.526 194.792,269.052 195.341 C 270.211 196.551,270.882 196.619,270.882 195.527 C 270.882 195.080,271.032 194.622,271.215 194.509 C 271.398 194.396,271.547 193.788,271.547 193.158 C 271.547 192.529,271.697 192.013,271.880 192.013 C 272.067 192.013,272.213 191.080,272.213 189.878 C 272.213 188.493,272.356 187.695,272.619 187.607 C 273.211 187.410,273.221 170.260,272.629 169.668 C 272.400 169.439,272.213 168.541,272.213 167.674 C 272.213 166.806,272.063 166.003,271.880 165.890 C 271.697 165.777,271.547 165.019,271.547 164.207 C 271.547 163.394,271.398 162.729,271.215 162.729 C 271.032 162.729,270.882 161.905,270.882 160.899 C 270.882 159.892,270.732 159.068,270.549 159.068 C 270.366 159.068,270.216 158.253,270.216 157.258 C 270.216 156.262,270.086 155.366,269.927 155.268 C 269.768 155.170,269.532 153.740,269.403 152.092 C 269.274 150.443,269.030 149.008,268.861 148.903 C 268.691 148.798,268.552 147.898,268.552 146.902 C 268.552 145.906,268.403 145.092,268.220 145.092 C 268.037 145.092,267.887 144.277,267.887 143.281 C 267.887 142.285,267.737 141.378,267.554 141.265 C 267.371 141.151,267.221 140.328,267.221 139.434 C 267.221 138.541,267.072 137.717,266.889 137.604 C 266.705 137.491,266.556 136.667,266.556 135.774 C 266.556 134.880,266.406 134.057,266.223 133.943 C 266.040 133.830,265.890 133.101,265.890 132.323 C 265.890 131.546,265.670 130.619,265.402 130.263 C 265.133 129.908,264.908 129.376,264.902 129.082 C 264.897 128.787,264.458 127.664,263.927 126.586 C 262.467 123.621,261.897 122.248,261.897 121.695 C 261.897 121.116,260.521 118.357,260.150 118.192 C 260.012 118.131,259.900 117.823,259.900 117.507 C 259.900 117.192,259.377 115.894,258.736 114.623 C 258.096 113.352,257.572 112.126,257.572 111.897 C 257.571 111.668,257.421 111.481,257.238 111.481 C 257.055 111.481,256.905 111.194,256.905 110.843 C 256.905 110.492,256.788 110.155,256.644 110.094 C 256.425 110.001,255.208 107.602,253.467 103.827 C 253.256 103.369,252.820 102.753,252.498 102.457 C 252.177 102.161,251.913 101.772,251.913 101.593 C 251.913 101.414,251.622 101.005,251.267 100.683 C 250.911 100.361,250.525 99.665,250.409 99.137 C 250.293 98.609,250.060 98.092,249.891 97.988 C 249.722 97.883,249.584 97.432,249.584 96.985 C 249.584 96.539,249.434 96.173,249.251 96.173 C 249.068 96.173,248.918 95.808,248.918 95.361 C 248.918 94.914,248.769 94.456,248.586 94.343 C 248.403 94.230,248.253 93.631,248.253 93.012 C 248.253 92.393,248.103 91.794,247.920 91.681 C 247.737 91.567,247.587 90.894,247.587 90.183 C 247.587 89.473,247.450 88.806,247.283 88.703 C 247.115 88.599,246.873 87.390,246.744 86.016 C 246.615 84.642,246.378 83.436,246.217 83.337 C 246.055 83.237,245.923 82.640,245.923 82.010 C 245.923 81.381,245.774 80.865,245.591 80.865 C 245.408 80.865,245.258 80.350,245.258 79.720 C 245.258 79.090,245.108 78.483,244.925 78.369 C 244.742 78.256,244.592 77.499,244.592 76.686 C 244.592 75.873,244.443 75.208,244.260 75.208 C 244.077 75.208,243.927 74.693,243.927 74.063 C 243.927 73.433,243.795 72.836,243.634 72.737 C 243.472 72.637,243.235 71.431,243.106 70.057 C 242.977 68.683,242.735 67.474,242.567 67.370 C 242.400 67.267,242.263 66.601,242.263 65.890 C 242.263 65.180,242.113 64.506,241.930 64.393 C 241.747 64.280,241.597 63.372,241.597 62.376 C 241.597 61.381,241.448 60.566,241.265 60.566 C 241.082 60.566,240.932 59.742,240.932 58.735 C 240.932 57.729,240.782 56.905,240.599 56.905 C 240.411 56.905,240.266 55.962,240.266 54.742 C 240.266 53.552,240.131 52.579,239.966 52.579 C 239.801 52.579,239.559 50.855,239.427 48.747 C 239.295 46.639,239.056 44.833,238.895 44.734 C 238.734 44.634,238.602 43.822,238.602 42.928 C 238.602 42.035,238.453 41.211,238.270 41.098 C 238.087 40.985,237.937 40.161,237.937 39.268 C 237.937 38.374,237.787 37.551,237.604 37.438 C 237.421 37.324,237.271 36.351,237.271 35.275 C 237.271 34.198,237.121 33.225,236.938 33.111 C 236.755 32.998,236.606 32.175,236.606 31.281 C 236.606 30.388,236.456 29.564,236.273 29.451 C 236.090 29.338,235.940 28.439,235.940 27.454 C 235.940 26.469,235.806 25.580,235.642 25.479 C 234.333 24.670,235.003 18.968,236.407 18.968 C 236.801 18.968,237.340 18.669,237.604 18.303 C 237.868 17.937,238.289 17.637,238.539 17.637 C 239.069 17.637,240.239 16.333,240.255 15.724 C 240.261 15.495,240.379 15.307,240.516 15.305 C 240.653 15.304,240.953 14.900,241.181 14.407 C 242.640 11.266,239.473 5.657,236.241 5.657 C 235.914 5.657,235.554 5.507,235.441 5.324 C 235.306 5.106,223.402 4.992,200.812 4.992 C 178.086 4.992,166.389 5.105,166.389 5.324 M194.676 164.892 C 194.676 165.676,194.573 165.724,192.884 165.724 C 191.372 165.724,191.065 165.828,190.919 166.389 C 190.790 166.879,190.465 167.055,189.684 167.055 C 188.903 167.055,188.577 167.231,188.449 167.720 C 188.318 168.221,187.995 168.386,187.149 168.386 C 186.370 168.386,186.023 168.540,186.023 168.885 C 186.023 169.231,185.676 169.384,184.897 169.384 C 184.051 169.384,183.728 169.550,183.597 170.050 C 183.480 170.500,183.144 170.715,182.560 170.715 C 181.919 170.715,181.697 170.887,181.697 171.381 C 181.697 171.747,181.547 172.047,181.364 172.047 C 181.181 172.047,181.032 172.421,181.032 172.879 C 181.032 173.657,180.923 173.710,179.337 173.710 C 177.921 173.710,177.613 173.820,177.467 174.376 C 177.372 174.742,177.104 175.042,176.872 175.042 C 176.640 175.042,176.372 175.341,176.276 175.707 C 176.181 176.073,175.864 176.373,175.572 176.373 C 175.280 176.373,175.042 176.597,175.042 176.872 C 175.042 177.197,174.716 177.371,174.110 177.371 C 172.899 177.371,171.387 178.080,171.384 178.650 C 171.382 178.896,171.082 179.176,170.715 179.271 C 170.349 179.367,170.050 179.698,170.050 180.006 C 170.050 181.531,169.262 182.357,167.804 182.360 C 166.504 182.363,166.389 182.433,166.389 183.226 C 166.389 183.809,166.174 184.145,165.724 184.263 C 165.358 184.359,165.058 184.644,165.058 184.897 C 165.058 185.151,164.851 185.358,164.598 185.358 C 164.345 185.358,164.059 185.657,163.963 186.023 C 163.837 186.506,163.510 186.689,162.772 186.689 C 162.094 186.689,161.635 186.912,161.398 187.354 C 161.202 187.720,160.747 188.020,160.388 188.020 C 160.028 188.020,159.734 188.245,159.734 188.519 C 159.734 188.794,159.584 189.018,159.401 189.018 C 159.218 189.018,159.068 189.318,159.068 189.684 C 159.068 190.050,158.898 190.349,158.690 190.349 C 158.095 190.349,156.739 191.980,156.739 192.696 C 156.739 193.218,156.506 193.344,155.543 193.344 C 154.627 193.344,154.306 193.500,154.173 194.010 C 154.077 194.376,153.792 194.676,153.539 194.676 C 153.285 194.676,153.078 194.900,153.078 195.175 C 153.078 195.544,152.690 195.674,151.581 195.674 C 150.347 195.674,150.083 195.782,150.083 196.288 C 150.083 197.235,149.092 199.002,148.561 199.002 C 148.300 199.002,148.087 199.226,148.087 199.501 C 148.087 199.871,147.698 200.000,146.589 200.000 C 145.355 200.000,145.092 200.108,145.092 200.614 C 145.092 202.186,144.101 203.328,142.738 203.328 C 141.798 203.328,141.431 203.468,141.431 203.827 C 141.431 204.104,141.135 204.326,140.765 204.326 C 140.322 204.326,140.100 204.548,140.100 204.992 C 140.100 205.471,139.878 205.657,139.307 205.657 C 138.793 205.657,138.452 205.892,138.340 206.323 C 138.206 206.833,137.886 206.988,136.970 206.988 C 136.128 206.988,135.774 207.136,135.774 207.488 C 135.774 207.762,135.567 207.987,135.313 207.987 C 135.060 207.987,134.775 208.286,134.679 208.652 C 134.546 209.162,134.225 209.318,133.309 209.318 C 132.255 209.318,132.113 209.417,132.113 210.150 C 132.113 210.636,131.922 210.982,131.653 210.982 C 131.400 210.982,131.114 211.281,131.018 211.647 C 130.923 212.013,130.616 212.313,130.336 212.313 C 130.029 212.313,129.786 212.675,129.723 213.228 C 129.637 213.968,129.427 214.164,128.619 214.255 C 128.070 214.317,127.501 214.579,127.355 214.838 C 127.208 215.096,126.871 215.308,126.606 215.308 C 126.340 215.308,126.123 215.458,126.123 215.641 C 126.123 215.824,125.477 215.973,124.688 215.973 C 123.356 215.973,123.219 216.058,122.795 217.138 C 122.544 217.779,122.128 218.303,121.870 218.303 C 121.613 218.303,121.324 218.602,121.228 218.968 C 121.087 219.506,120.774 219.634,119.595 219.634 C 118.412 219.634,118.136 219.747,118.136 220.233 C 118.136 221.797,117.360 222.624,115.890 222.626 C 114.699 222.629,114.476 222.734,114.476 223.295 C 114.476 223.715,114.254 223.960,113.872 223.960 C 113.492 223.960,113.100 224.390,112.812 225.125 C 112.398 226.179,112.232 226.290,111.055 226.290 C 110.035 226.290,109.717 226.433,109.581 226.955 C 109.485 227.321,109.209 227.621,108.968 227.621 C 108.727 227.621,108.483 228.032,108.425 228.536 C 108.333 229.330,108.155 229.465,107.072 229.554 C 105.999 229.643,105.824 229.771,105.824 230.469 C 105.824 230.969,105.632 231.281,105.324 231.281 C 105.050 231.281,104.825 231.520,104.825 231.812 C 104.825 232.103,104.526 232.420,104.160 232.516 C 103.794 232.612,103.494 232.897,103.494 233.150 C 103.494 233.457,103.095 233.611,102.298 233.611 C 101.382 233.611,101.062 233.766,100.928 234.276 C 100.819 234.695,100.474 234.942,100.000 234.942 C 99.526 234.942,99.181 235.189,99.072 235.607 C 98.936 236.127,98.616 236.273,97.619 236.275 C 96.292 236.278,95.507 237.167,95.507 238.669 C 95.507 239.034,95.263 239.268,94.881 239.268 C 94.534 239.268,94.176 239.565,94.080 239.933 C 93.943 240.456,93.626 240.599,92.606 240.599 C 91.429 240.599,91.262 240.709,90.849 241.764 C 90.425 242.844,90.288 242.928,88.956 242.928 C 87.865 242.928,87.521 243.055,87.521 243.459 C 87.521 243.750,87.227 244.066,86.868 244.160 C 86.417 244.278,86.131 244.757,85.944 245.709 C 85.676 247.073,85.655 247.089,84.101 247.190 C 82.683 247.281,82.529 247.371,82.529 248.105 C 82.529 248.576,82.335 248.918,82.069 248.918 C 81.816 248.918,81.530 249.218,81.434 249.584 C 81.306 250.074,80.980 250.250,80.200 250.250 C 79.419 250.250,79.093 250.425,78.965 250.915 C 78.869 251.281,78.584 251.581,78.331 251.581 C 78.077 251.581,77.869 251.768,77.868 251.997 C 77.864 252.532,76.331 253.245,75.180 253.245 C 74.567 253.245,74.233 253.453,74.113 253.910 C 74.018 254.276,73.718 254.576,73.448 254.576 C 73.177 254.576,72.878 254.875,72.782 255.241 C 72.686 255.607,72.369 255.907,72.078 255.907 C 71.734 255.907,71.547 256.199,71.547 256.739 C 71.547 257.462,71.401 257.571,70.422 257.571 C 69.575 257.571,69.252 257.736,69.122 258.236 C 69.026 258.602,68.709 258.902,68.417 258.902 C 68.126 258.902,67.887 259.126,67.887 259.401 C 67.887 259.762,67.517 259.900,66.555 259.900 C 65.319 259.900,65.181 259.996,64.646 261.231 C 64.329 261.963,63.890 262.562,63.672 262.562 C 63.453 262.562,63.226 262.899,63.168 263.311 C 63.076 263.961,62.836 264.073,61.349 264.159 C 59.546 264.264,59.466 264.343,58.933 266.556 C 58.758 267.278,58.524 267.401,57.153 267.489 C 56.045 267.560,55.574 267.734,55.574 268.071 C 55.574 268.336,55.385 268.552,55.153 268.552 C 54.922 268.552,54.473 269.151,54.156 269.884 C 53.621 271.119,53.483 271.215,52.247 271.215 C 51.285 271.215,50.915 271.353,50.915 271.714 C 50.915 271.991,50.619 272.213,50.250 272.213 C 49.806 272.213,49.584 272.435,49.584 272.879 C 49.584 273.413,49.362 273.544,48.458 273.544 C 47.612 273.544,47.289 273.710,47.158 274.210 C 47.062 274.576,46.745 274.875,46.454 274.875 C 46.110 274.875,45.923 275.168,45.923 275.707 C 45.923 276.247,45.737 276.539,45.393 276.539 C 45.101 276.539,44.784 276.839,44.689 277.205 C 44.558 277.705,44.235 277.870,43.389 277.870 C 42.610 277.870,42.263 278.024,42.263 278.369 C 42.263 278.644,42.024 278.869,41.733 278.869 C 41.441 278.869,41.130 279.145,41.042 279.482 C 40.954 279.819,40.369 280.296,39.742 280.542 C 39.115 280.788,38.602 281.190,38.602 281.435 C 38.602 281.680,38.265 282.009,37.854 282.166 C 37.442 282.324,36.820 282.769,36.471 283.156 C 36.122 283.544,35.636 283.860,35.389 283.860 C 35.143 283.860,34.942 284.010,34.942 284.193 C 34.942 284.376,34.564 284.526,34.102 284.526 C 33.538 284.526,33.166 284.772,32.972 285.275 C 32.578 286.297,31.094 287.521,30.249 287.521 C 29.835 287.521,29.485 287.789,29.381 288.186 C 29.285 288.552,29.026 288.852,28.805 288.852 C 28.583 288.852,28.050 289.226,27.621 289.684 C 27.091 290.248,26.483 290.516,25.732 290.516 C 24.942 290.516,24.626 290.667,24.626 291.046 C 24.626 291.338,24.340 291.651,23.991 291.742 C 23.642 291.834,23.281 292.194,23.190 292.543 C 23.061 293.037,22.722 293.178,21.662 293.178 C 20.431 293.178,20.300 293.258,20.300 294.010 C 20.300 294.535,20.112 294.842,19.790 294.842 C 19.510 294.842,19.181 295.104,19.060 295.424 C 18.795 296.127,17.141 297.837,16.727 297.837 C 16.564 297.837,16.000 298.286,15.474 298.835 C 14.948 299.384,14.344 299.834,14.132 299.834 C 13.920 299.834,13.476 300.133,13.145 300.499 C 12.813 300.865,12.367 301.165,12.153 301.165 C 11.939 301.165,11.412 301.539,10.982 301.997 C 10.552 302.454,10.033 302.829,9.830 302.829 C 9.354 302.829,6.323 305.896,6.323 306.377 C 6.323 306.577,6.102 306.924,5.831 307.148 C 5.561 307.373,4.949 308.402,4.471 309.435 C 3.994 310.469,3.466 311.575,3.299 311.892 C 2.888 312.674,2.911 317.047,3.328 317.304 C 3.511 317.418,3.661 317.787,3.661 318.125 C 3.661 318.789,4.999 321.560,5.408 321.742 C 5.545 321.803,5.657 322.040,5.657 322.270 C 5.657 322.879,8.204 325.458,8.805 325.458 C 9.087 325.458,9.318 325.572,9.318 325.712 C 9.318 326.055,11.823 327.121,12.628 327.121 C 12.982 327.121,13.364 327.271,13.478 327.454 C 13.614 327.675,76.037 327.787,199.667 327.787 C 323.298 327.787,385.720 327.675,385.857 327.454 C 385.970 327.271,386.376 327.121,386.759 327.121 C 388.468 327.121,394.007 323.452,394.011 322.316 C 394.012 322.122,394.387 321.227,394.843 320.326 C 395.300 319.426,395.674 318.415,395.674 318.080 C 395.674 317.745,395.824 317.471,396.007 317.471 C 396.201 317.471,396.339 316.368,396.339 314.828 C 396.339 313.375,396.190 312.093,396.007 311.980 C 395.824 311.867,395.674 311.409,395.674 310.962 C 395.674 310.515,395.562 310.149,395.424 310.147 C 395.103 310.144,394.343 308.512,394.343 307.825 C 394.343 307.242,391.368 304.160,390.806 304.160 C 390.611 304.160,390.182 303.860,389.850 303.494 C 389.519 303.128,389.111 302.829,388.945 302.829 C 388.778 302.829,388.090 302.306,387.415 301.667 C 386.741 301.028,386.071 300.504,385.925 300.502 C 385.537 300.498,384.197 299.093,383.938 298.418 C 383.815 298.099,383.411 297.837,383.039 297.837 C 382.660 297.837,382.363 297.618,382.363 297.338 C 382.363 297.063,382.076 296.839,381.725 296.839 C 381.337 296.839,380.915 296.448,380.645 295.840 C 380.343 295.157,379.967 294.842,379.453 294.842 C 378.874 294.842,378.702 294.652,378.702 294.010 C 378.702 293.281,378.558 293.178,377.536 293.178 C 376.494 293.178,376.310 293.037,375.794 291.847 C 375.365 290.856,375.025 290.516,374.464 290.516 C 374.016 290.516,373.710 290.313,373.710 290.017 C 373.710 289.715,373.402 289.517,372.930 289.517 C 372.501 289.517,371.879 289.218,371.547 288.852 C 371.216 288.486,370.781 288.185,370.581 288.183 C 370.380 288.181,369.709 287.657,369.088 287.018 C 368.467 286.379,367.821 285.857,367.652 285.857 C 367.483 285.857,366.615 285.108,365.724 284.193 C 364.832 283.278,363.981 282.528,363.832 282.526 C 363.683 282.525,363.009 282.001,362.335 281.362 C 361.661 280.722,360.973 280.200,360.806 280.200 C 360.639 280.200,360.231 279.900,359.900 279.534 C 359.527 279.121,358.875 278.869,358.185 278.869 C 357.417 278.869,357.072 278.714,357.072 278.369 C 357.072 278.065,356.762 277.870,356.278 277.870 C 355.765 277.870,355.424 277.635,355.311 277.205 C 355.194 276.755,354.857 276.539,354.274 276.539 C 353.575 276.539,353.411 276.381,353.411 275.707 C 353.411 275.085,353.236 274.875,352.714 274.875 C 352.297 274.875,351.948 274.608,351.844 274.210 C 351.747 273.841,351.390 273.544,351.043 273.544 C 350.638 273.544,350.416 273.309,350.416 272.879 C 350.416 272.388,350.194 272.213,349.574 272.213 C 349.110 272.213,348.645 271.988,348.540 271.714 C 348.434 271.439,348.051 271.215,347.687 271.215 C 347.306 271.215,346.952 270.933,346.852 270.549 C 346.723 270.055,346.398 269.884,345.591 269.884 C 344.783 269.884,344.459 269.712,344.330 269.218 C 344.234 268.852,343.917 268.552,343.625 268.552 C 343.333 268.552,343.095 268.345,343.095 268.092 C 343.095 267.839,342.795 267.553,342.429 267.458 C 341.980 267.340,341.764 267.004,341.764 266.421 C 341.764 265.619,341.656 265.557,340.266 265.557 C 338.991 265.557,338.769 265.459,338.769 264.892 C 338.769 264.526,338.619 264.226,338.436 264.226 C 338.253 264.226,338.103 263.852,338.103 263.394 C 338.103 262.908,337.912 262.562,337.643 262.562 C 337.390 262.562,337.104 262.263,337.008 261.897 C 336.869 261.365,336.554 261.231,335.441 261.231 C 334.327 261.231,334.013 261.098,333.873 260.566 C 333.778 260.200,333.492 259.900,333.239 259.900 C 332.986 259.900,332.779 259.676,332.779 259.401 C 332.779 259.050,332.424 258.902,331.583 258.902 C 330.667 258.902,330.346 258.746,330.213 258.236 C 330.100 257.806,329.759 257.571,329.246 257.571 C 328.704 257.571,328.453 257.381,328.453 256.972 C 328.453 255.408,327.677 254.581,326.206 254.578 C 325.204 254.576,324.792 254.437,324.792 254.101 C 324.792 253.616,323.056 252.579,322.245 252.579 C 321.999 252.579,321.797 252.354,321.797 252.080 C 321.797 251.764,321.479 251.581,320.934 251.581 C 320.351 251.581,320.014 251.365,319.897 250.915 C 319.801 250.549,319.502 250.250,319.231 250.250 C 318.961 250.250,318.661 249.950,318.566 249.584 C 318.435 249.084,318.112 248.918,317.266 248.918 C 316.301 248.918,316.140 248.805,316.140 248.125 C 316.140 247.612,315.905 247.271,315.474 247.158 C 315.024 247.041,314.809 246.704,314.809 246.121 C 314.809 245.356,314.676 245.258,313.644 245.258 C 312.874 245.258,312.479 245.102,312.479 244.798 C 312.479 244.544,312.180 244.259,311.814 244.163 C 311.448 244.067,311.148 243.750,311.148 243.459 C 311.148 243.167,310.941 242.928,310.688 242.928 C 310.435 242.928,310.149 242.629,310.053 242.263 C 309.915 241.734,309.599 241.597,308.517 241.597 C 307.528 241.597,307.155 241.461,307.155 241.098 C 307.155 240.824,307.005 240.599,306.822 240.599 C 306.639 240.599,306.489 240.300,306.489 239.933 C 306.489 239.497,306.267 239.268,305.846 239.268 C 305.391 239.268,305.171 238.999,305.097 238.353 C 305.004 237.541,304.839 237.426,303.633 237.338 C 302.430 237.250,302.223 237.107,301.824 236.090 C 301.410 235.035,301.260 234.942,299.977 234.942 C 298.860 234.942,298.545 234.808,298.406 234.276 C 298.310 233.910,298.021 233.611,297.764 233.611 C 297.506 233.611,297.090 233.087,296.839 232.446 C 296.396 231.318,296.325 231.281,294.613 231.281 C 292.970 231.281,292.845 231.225,292.845 230.485 C 292.845 230.047,292.632 229.607,292.372 229.507 C 292.112 229.407,291.849 228.979,291.790 228.556 C 291.711 227.999,291.429 227.758,290.765 227.682 C 290.119 227.607,289.850 227.388,289.850 226.933 C 289.850 226.468,289.619 226.290,289.018 226.290 C 288.532 226.290,288.186 226.098,288.186 225.829 C 288.186 225.576,287.887 225.290,287.521 225.195 C 287.155 225.099,286.855 224.782,286.855 224.490 C 286.855 224.106,286.534 223.960,285.691 223.960 C 284.847 223.960,284.526 223.814,284.526 223.430 C 284.526 223.138,284.226 222.821,283.860 222.725 C 283.494 222.630,283.195 222.344,283.195 222.091 C 283.195 221.767,282.750 221.631,281.697 221.631 C 280.463 221.631,280.200 221.523,280.200 221.016 C 280.200 220.069,279.209 218.303,278.678 218.303 C 278.417 218.303,278.203 218.078,278.203 217.804 C 278.203 217.443,277.832 217.304,276.861 217.304 C 275.890 217.304,275.459 217.144,275.299 216.722 C 275.020 215.985,274.359 215.308,273.917 215.308 C 273.730 215.308,273.457 215.094,273.311 214.833 C 273.165 214.573,272.447 214.310,271.715 214.251 C 270.614 214.162,270.351 214.000,270.185 213.311 C 269.650 211.089,269.550 210.982,268.014 210.982 C 266.680 210.982,266.556 210.911,266.556 210.150 C 266.556 209.685,266.363 209.318,266.119 209.318 C 265.878 209.318,265.476 208.794,265.225 208.153 C 264.815 207.108,264.638 206.988,263.510 206.988 C 262.594 206.988,262.157 206.808,261.897 206.323 C 261.701 205.957,261.339 205.657,261.092 205.657 C 260.845 205.657,260.565 205.358,260.469 204.992 C 260.347 204.525,260.013 204.324,259.349 204.320 C 258.424 204.315,256.905 203.114,256.905 202.388 C 256.905 202.197,256.493 201.993,255.990 201.936 C 255.271 201.853,255.052 201.634,254.970 200.915 C 254.878 200.115,254.721 200.000,253.722 200.000 C 252.971 200.000,252.579 199.842,252.579 199.540 C 252.579 199.286,252.280 199.001,251.913 198.905 C 251.547 198.810,251.248 198.493,251.248 198.201 C 251.248 197.794,250.899 197.671,249.750 197.671 L 248.253 197.671 248.253 196.406 C 248.253 194.937,247.606 193.351,247.005 193.347 C 246.776 193.346,246.589 192.978,246.589 192.531 C 246.589 191.798,246.434 191.707,245.036 191.616 C 243.591 191.521,243.457 191.434,243.093 190.349 C 242.879 189.709,242.454 189.136,242.150 189.077 C 241.846 189.018,241.597 188.756,241.597 188.495 C 241.597 188.161,241.193 188.020,240.235 188.020 C 239.153 188.020,238.837 187.883,238.699 187.354 C 238.603 186.988,238.410 186.689,238.270 186.689 C 238.129 186.689,237.936 186.389,237.840 186.023 C 237.745 185.657,237.428 185.358,237.136 185.358 C 236.844 185.358,236.606 185.142,236.606 184.878 C 236.606 184.551,236.154 184.365,235.191 184.295 C 233.926 184.204,233.766 184.097,233.672 183.278 C 233.614 182.775,233.427 182.363,233.256 182.363 C 233.085 182.363,232.945 182.063,232.945 181.697 C 232.945 181.209,232.723 181.032,232.113 181.032 C 231.448 181.032,231.281 180.865,231.281 180.200 C 231.281 179.473,231.136 179.368,230.135 179.368 C 229.212 179.368,228.903 179.189,228.551 178.453 C 228.260 177.842,227.811 177.502,227.202 177.432 C 226.681 177.372,226.290 177.122,226.290 176.850 C 226.290 176.533,225.925 176.373,225.203 176.373 C 224.254 176.373,224.044 176.205,223.540 175.042 C 223.088 173.997,222.785 173.710,222.131 173.710 C 221.464 173.710,221.298 173.544,221.298 172.879 C 221.298 172.150,221.154 172.047,220.133 172.047 C 219.190 172.047,218.968 171.920,218.968 171.381 C 218.968 170.951,218.747 170.715,218.342 170.715 C 217.995 170.715,217.637 170.418,217.541 170.050 C 217.437 169.652,217.087 169.384,216.670 169.384 C 216.273 169.384,215.973 169.170,215.973 168.885 C 215.973 168.514,215.582 168.386,214.445 168.386 C 213.196 168.386,212.884 168.264,212.742 167.720 C 212.646 167.354,212.378 167.055,212.146 167.055 C 211.915 167.055,211.647 166.755,211.551 166.389 C 211.395 165.793,211.097 165.724,208.683 165.724 C 206.032 165.724,205.990 165.711,205.990 164.892 L 205.990 164.060 200.333 164.060 L 194.676 164.060 194.676 164.892 M202.496 190.017 C 202.609 190.200,203.000 190.349,203.366 190.349 C 205.459 190.349,207.870 192.295,209.318 195.153 C 210.221 196.935,210.571 203.067,209.800 203.590 C 209.607 203.720,209.206 204.351,208.908 204.992 C 208.251 206.403,206.867 207.733,205.408 208.354 C 204.813 208.607,204.326 208.928,204.326 209.066 C 204.326 209.205,203.961 209.318,203.514 209.318 C 203.067 209.318,202.609 209.468,202.496 209.651 C 202.383 209.834,201.409 209.983,200.333 209.983 C 199.256 209.983,198.283 209.834,198.170 209.651 C 198.057 209.468,197.599 209.318,197.152 209.318 C 196.705 209.318,196.339 209.205,196.339 209.066 C 196.339 208.928,195.853 208.608,195.258 208.355 C 193.973 207.809,192.013 206.039,192.013 205.426 C 192.013 205.187,191.864 204.992,191.681 204.992 C 191.498 204.992,191.348 204.692,191.348 204.326 C 191.348 203.960,191.198 203.661,191.015 203.661 C 190.832 203.661,190.682 203.295,190.682 202.848 C 190.682 202.401,190.532 201.943,190.349 201.830 C 190.166 201.717,190.017 200.819,190.017 199.834 C 190.017 198.849,190.166 197.950,190.349 197.837 C 190.532 197.724,190.682 197.364,190.682 197.036 C 190.682 196.333,191.581 194.444,192.055 194.151 C 192.238 194.038,192.525 193.583,192.693 193.140 C 192.862 192.697,193.345 192.203,193.768 192.042 C 194.191 191.881,194.737 191.508,194.982 191.213 C 195.227 190.918,196.010 190.583,196.723 190.469 C 197.435 190.355,198.098 190.132,198.197 189.973 C 198.446 189.570,202.244 189.609,202.496 190.017 " stroke="none" fill="#390040" fill-rule="evenodd"></path><path id="path2" d="" stroke="none" fill="#bc10080" fill-rule="evenodd"></path><path id="path3" d="" stroke="none" fill="#bc10080" fill-rule="evenodd"></path><path id="path4" d="" stroke="none" fill="#bc10080" fill-rule="evenodd"></path></g></svg>